<svg id="eye-2" xmlns="http://www.w3.org/2000/svg" width="20.959" height="12.494" viewBox="0 0 20.959 12.494">
  <path id="Path_162" data-name="Path 162" d="M10.479,98.725c-4,0-7.636,2.191-10.315,5.749a.83.83,0,0,0,0,.99c2.68,3.563,6.311,5.754,10.315,5.754s7.636-2.191,10.315-5.749a.83.83,0,0,0,0-.99C18.115,100.916,14.484,98.725,10.479,98.725Zm.287,10.646a4.408,4.408,0,1,1,4.112-4.112A4.411,4.411,0,0,1,10.767,109.371Zm-.133-2.032a2.374,2.374,0,1,1,2.217-2.217A2.37,2.37,0,0,1,10.634,107.338Z" transform="translate(0 -98.725)" fill="#b5b5b5"/>
</svg>
