<svg xmlns="http://www.w3.org/2000/svg" xmlns:xlink="http://www.w3.org/1999/xlink" width="24.905" height="27.66" viewBox="0 0 24.905 27.66">
  <defs>
    <clipPath id="clip-path">
      <rect width="24.905" height="27.66" fill="none"/>
    </clipPath>
  </defs>
  <g id="Repeat_Grid_1" data-name="Repeat Grid 1" clip-path="url(#clip-path)">
    <g transform="translate(-469.547 -1029.792)">
      <g id="Path_416" data-name="Path 416" transform="translate(469.547 1032.547)" fill="none">
        <path d="M12.453,0a12.586,12.586,0,0,1,9.36,4.239,12.211,12.211,0,0,1,3.093,8.214A12.453,12.453,0,1,1,12.453,0Z" stroke="none"/>
        <path d="M 12.45263671875 0.9999961853027344 C 9.393527030944824 0.9999961853027344 6.51751708984375 2.191276550292969 4.354396820068359 4.354396820068359 C 2.191276550292969 6.51751708984375 0.9999961853027344 9.393527030944824 0.9999961853027344 12.45263671875 C 0.9999961853027344 15.51174640655518 2.191276550292969 18.38775634765625 4.354396820068359 20.55087661743164 C 6.51751708984375 22.71399688720703 9.393527030944824 23.90527725219727 12.45263671875 23.90527725219727 C 15.51174640655518 23.90527725219727 18.38775634765625 22.71399688720703 20.55087661743164 20.55087661743164 C 22.71399688720703 18.38775634765625 23.90527725219727 15.51174640655518 23.90527725219727 12.45263671875 C 23.90527725219727 10.99714660644531 23.64001655578613 9.576606750488281 23.11686706542969 8.230485916137695 C 22.62980651855469 6.97724723815918 21.92510604858398 5.832006454467773 21.07724761962891 4.916706085205078 C 19.91754722595215 3.658426284790039 18.59307670593262 2.682966232299805 17.14062690734863 2.017416000366211 C 15.66731643676758 1.342306137084961 14.09004688262939 0.9999961853027344 12.45263671875 0.9999961853027344 M 12.45263671875 -3.814697265625e-06 C 16.07012557983398 -3.814697265625e-06 19.32734680175781 1.542516708374023 21.81256675720215 4.238986968994141 C 23.65263748168945 6.225387573242188 24.90527725219727 9.192727088928223 24.90527725219727 12.45263671875 C 24.90527725219727 19.33003616333008 19.33003616333008 24.90527725219727 12.45263671875 24.90527725219727 C 5.575237274169922 24.90527725219727 -3.814697265625e-06 19.33003616333008 -3.814697265625e-06 12.45263671875 C -3.814697265625e-06 5.575237274169922 5.575237274169922 -3.814697265625e-06 12.45263671875 -3.814697265625e-06 Z" stroke="none" fill="#eae6e7"/>
      </g>
      <text id="c" transform="translate(477.019 1049.792)" fill="#eae6e7" font-size="19" font-family="DINPro, DIN Pro"><tspan x="0" y="0">c</tspan></text>
    </g>
  </g>
</svg>
